<svg width="233" height="224" viewBox="0 0 233 224" fill="none" xmlns="http://www.w3.org/2000/svg">
<g clip-path="url(#clip0_370_304)">
<mask id="mask0_370_304" style="mask-type:luminance" maskUnits="userSpaceOnUse" x="0" y="0" width="142" height="130">
<path d="M141.293 0H0V129.862H141.293V0Z" fill="white"/>
</mask>
<g mask="url(#mask0_370_304)">
<path d="M106.276 34.3948V13.6455C60.0136 18.5006 23.0035 55.4507 18.1983 101.753H38.9526C43.4511 66.7452 71.362 38.8921 106.327 34.3948H106.276Z" fill="#2B2A2A" stroke="#2B2A2A" stroke-miterlimit="10"/>
</g>
<mask id="mask1_370_304" style="mask-type:luminance" maskUnits="userSpaceOnUse" x="116" y="6" width="108" height="104">
<path d="M223.645 6.38831H116.602V109.112H223.645V6.38831Z" fill="white"/>
</mask>
<g mask="url(#mask1_370_304)">
<path d="M194.201 101.753H214.955C210.15 55.4505 173.14 18.5005 126.826 13.6454V34.3946C161.842 38.892 189.702 66.7451 194.201 101.753Z" fill="#2B2A2A" stroke="#2B2A2A" stroke-miterlimit="10"/>
</g>
<mask id="mask2_370_304" style="mask-type:luminance" maskUnits="userSpaceOnUse" x="0" y="104" width="130" height="120">
<path d="M129.893 104.564H0V224H129.893V104.564Z" fill="white"/>
</mask>
<g mask="url(#mask2_370_304)">
<path d="M38.9526 122.247H18.1983C23.0035 168.549 60.0136 205.499 106.327 210.355V189.605C71.4131 185.108 43.4511 157.204 38.9526 122.247Z" fill="#E02F2F" stroke="#E02F2F" stroke-miterlimit="10"/>
</g>
<mask id="mask3_370_304" style="mask-type:luminance" maskUnits="userSpaceOnUse" x="113" y="104" width="120" height="112">
<path d="M233 104.564H113.535V215.567H233V104.564Z" fill="white"/>
</mask>
<g mask="url(#mask3_370_304)">
<path d="M126.826 189.605V210.355C173.14 205.55 210.099 168.549 214.955 122.247H194.201C189.702 157.153 161.894 185.108 126.826 189.605Z" fill="#2B2A2A" stroke="#2B2A2A" stroke-miterlimit="10"/>
</g>
<path d="M175.491 111.974C175.491 79.5218 149.063 53.0997 116.602 53.0997C84.1417 53.0997 57.7132 79.5218 57.7132 111.974C57.7132 144.427 84.0906 170.849 116.602 170.849C149.114 170.849 175.491 144.427 175.491 111.974ZM116.602 150.304C95.4901 150.304 78.263 133.133 78.263 112.026C78.263 90.9186 95.4901 73.6957 116.602 73.6957C137.714 73.6957 154.941 90.8675 154.941 112.026C154.941 133.184 137.765 150.304 116.602 150.304Z" fill="#2B2A2A"/>
<path d="M135.874 111.974C135.874 114.53 135.363 116.983 134.392 119.334C133.42 121.685 132.04 123.78 130.251 125.569C128.462 127.358 126.366 128.789 124.014 129.76C121.663 130.731 119.209 131.191 116.653 131.191C114.097 131.191 111.644 130.731 109.292 129.76C106.941 128.789 104.845 127.409 103.056 125.569C101.267 123.729 99.8864 121.685 98.9151 119.334C97.9438 116.983 97.4326 114.53 97.4326 111.974C97.4326 109.419 97.9438 106.966 98.9151 104.615C99.8864 102.264 101.267 100.169 103.056 98.3801C104.845 96.5914 106.941 95.1604 109.292 94.1894C111.644 93.2184 114.097 92.7584 116.653 92.7584C119.209 92.7584 121.663 93.2184 124.014 94.1894C126.366 95.1604 128.462 96.5403 130.251 98.3801C132.04 100.22 133.471 102.264 134.392 104.615C135.363 106.966 135.874 109.419 135.874 111.974Z" fill="#E02F2F"/>
</g>
<defs>
<clipPath id="clip0_370_304">
<rect width="233" height="224" fill="white"/>
</clipPath>
</defs>
</svg>
