<svg width="144" height="24" viewBox="0 0 144 24" fill="none" xmlns="http://www.w3.org/2000/svg">
<mask id="mask0_370_247" style="mask-type:luminance" maskUnits="userSpaceOnUse" x="0" y="1" width="14" height="13">
<path d="M13.2626 1.34351H0V13.5361H13.2626V1.34351Z" fill="white"/>
</mask>
<g mask="url(#mask0_370_247)">
<path d="M9.97574 4.57276V2.62463C5.63325 3.07568 2.15925 6.54487 1.70821 10.8922H3.65633C4.07858 7.60531 6.69848 4.99021 9.98054 4.56796L9.97574 4.57276Z" fill="#2B2A2A" stroke="#2B2A2A" stroke-miterlimit="10"/>
</g>
<mask id="mask1_370_247" style="mask-type:luminance" maskUnits="userSpaceOnUse" x="10" y="1" width="11" height="11">
<path d="M20.9927 1.94324H10.945V11.5879H20.9927V1.94324Z" fill="white"/>
</mask>
<g mask="url(#mask1_370_247)">
<path d="M18.2289 10.8921H20.177C19.726 6.54479 16.252 3.07559 11.9047 2.61975V4.56788C15.1915 4.99013 17.8066 7.60522 18.2289 10.8921Z" fill="#2B2A2A" stroke="#2B2A2A" stroke-miterlimit="10"/>
</g>
<mask id="mask2_370_247" style="mask-type:luminance" maskUnits="userSpaceOnUse" x="0" y="11" width="13" height="12">
<path d="M12.1926 11.1609H0V22.3746H12.1926V11.1609Z" fill="white"/>
</mask>
<g mask="url(#mask2_370_247)">
<path d="M3.65633 12.8212H1.70821C2.15925 17.1685 5.63324 20.6377 9.98054 21.0935V19.1454C6.70327 18.7231 4.07858 16.1032 3.65633 12.8212Z" fill="#2B2A2A" stroke="#2B2A2A" stroke-miterlimit="10"/>
</g>
<mask id="mask3_370_247" style="mask-type:luminance" maskUnits="userSpaceOnUse" x="10" y="11" width="12" height="11">
<path d="M21.8708 11.1609H10.6571V21.5829H21.8708V11.1609Z" fill="white"/>
</mask>
<g mask="url(#mask3_370_247)">
<path d="M11.9047 19.1454V21.0935C16.252 20.6425 19.7212 17.1685 20.177 12.8212H18.2289C17.8066 16.0984 15.1963 18.7231 11.9047 19.1454Z" fill="#2B2A2A" stroke="#2B2A2A" stroke-miterlimit="10"/>
</g>
<path d="M16.4727 11.8567C16.4727 8.80972 13.992 6.32898 10.945 6.32898C7.89807 6.32898 5.41733 8.80972 5.41733 11.8567C5.41733 14.9036 7.89327 17.3843 10.945 17.3843C13.9968 17.3843 16.4727 14.9036 16.4727 11.8567ZM10.945 15.4506C8.9633 15.4506 7.34626 13.8384 7.34626 11.8567C7.34626 9.87495 8.9633 8.25791 10.945 8.25791C12.9267 8.25791 14.5438 9.87015 14.5438 11.8567C14.5438 13.8432 12.9315 15.4506 10.945 15.4506Z" fill="#2B2A2A"/>
<path d="M12.754 11.8567C12.754 12.0966 12.706 12.3269 12.6148 12.5476C12.5237 12.7683 12.3941 12.9651 12.2262 13.133C12.0582 13.301 11.8615 13.4353 11.6408 13.5265C11.42 13.6177 11.1897 13.6608 10.9498 13.6608C10.7099 13.6608 10.4796 13.6177 10.2588 13.5265C10.0381 13.4353 9.84139 13.3058 9.67345 13.133C9.50551 12.9603 9.37595 12.7683 9.28478 12.5476C9.19361 12.3269 9.14563 12.0966 9.14563 11.8567C9.14563 11.6167 9.19361 11.3864 9.28478 11.1657C9.37595 10.945 9.50551 10.7482 9.67345 10.5803C9.84139 10.4124 10.0381 10.278 10.2588 10.1868C10.4796 10.0957 10.7099 10.0525 10.9498 10.0525C11.1897 10.0525 11.42 10.0957 11.6408 10.1868C11.8615 10.278 12.0582 10.4076 12.2262 10.5803C12.3941 10.753 12.5285 10.945 12.6148 11.1657C12.706 11.3864 12.754 11.6167 12.754 11.8567Z" fill="#E02F2F"/>
<path d="M29.1135 18.9154C27.9187 18.9154 26.8486 18.6227 25.9034 18.0373C24.9581 17.4471 24.2144 16.6266 23.6721 15.5806C23.1395 14.5345 22.8708 13.3302 22.8708 11.9626C22.8708 10.5951 23.1347 9.39072 23.6721 8.34468C24.2096 7.29384 24.9485 6.47333 25.8794 5.88793C26.8198 5.29774 27.8899 5.00024 29.0895 5.00024C30.1403 5.00024 31.076 5.24016 31.8869 5.71999C32.6978 6.19983 33.36 6.89078 33.8638 7.78807H33.8926C33.8926 5.19697 33.8974 2.60587 33.9022 0.0147705H36.7668L36.7044 18.8051H33.8974C33.9118 17.9078 33.9262 17.0057 33.9406 16.1084H33.9118C33.4176 17.0009 32.7554 17.6966 31.9349 18.1861C31.1096 18.6803 30.1643 18.925 29.1039 18.925L29.1135 18.9154ZM29.886 16.4059C30.6873 16.4059 31.3927 16.2092 32.0069 15.8157C32.6258 15.4222 33.1105 14.8896 33.4655 14.2178C33.8254 13.5461 34.0078 12.7927 34.0078 11.9578C34.0078 11.1229 33.8254 10.3456 33.4655 9.67862C33.1105 9.01165 32.6258 8.48383 32.0069 8.09037C31.3927 7.69691 30.6873 7.50017 29.886 7.50017C29.0847 7.50017 28.3937 7.69691 27.7651 8.09037C27.1461 8.48383 26.6567 9.01645 26.2968 9.67862C25.9418 10.3456 25.769 11.1037 25.769 11.9578C25.769 12.8119 25.9418 13.5749 26.2968 14.2466C26.6567 14.9232 27.1461 15.451 27.7651 15.8349C28.3889 16.214 29.0991 16.4059 29.886 16.4059Z" fill="#2B2A2A"/>
<path d="M122.667 4.91829C123.861 4.91829 124.931 5.21099 125.877 5.79638C126.822 6.38658 127.566 7.20709 128.108 8.25313C128.641 9.29917 128.909 10.5036 128.909 11.8711C128.909 13.2386 128.645 14.443 128.108 15.489C127.571 16.5399 126.832 17.3604 125.901 17.9458C124.96 18.536 123.89 18.8335 122.691 18.8335C121.64 18.8335 120.704 18.5935 119.893 18.1137C119.082 17.6339 118.42 16.9429 117.916 16.0456H117.887C117.887 18.6367 117.883 21.2278 117.878 23.8189H115.013L115.076 5.02865H117.883C117.868 5.92594 117.854 6.82803 117.839 7.72531H117.868C118.362 6.83282 119.025 6.13707 119.845 5.64764C120.671 5.15341 121.616 4.90869 122.676 4.90869L122.667 4.91829ZM121.899 7.42782C121.098 7.42782 120.392 7.62455 119.778 8.01801C119.159 8.41148 118.674 8.94409 118.319 9.61586C117.959 10.2876 117.777 11.041 117.777 11.8759C117.777 12.7108 117.959 13.4881 118.319 14.1551C118.674 14.8221 119.159 15.3499 119.778 15.7433C120.392 16.1368 121.098 16.3335 121.899 16.3335C122.7 16.3335 123.391 16.1368 124.02 15.7433C124.639 15.3499 125.128 14.8173 125.488 14.1551C125.843 13.4881 126.016 12.73 126.016 11.8759C126.016 11.0218 125.843 10.2588 125.488 9.58707C125.128 8.9105 124.639 8.38269 124.02 7.99882C123.396 7.61975 122.686 7.42782 121.899 7.42782Z" fill="#2B2A2A"/>
<path d="M45.6485 18.9631C44.1946 18.9631 42.9039 18.656 41.7715 18.0514C40.6391 17.4468 39.7514 16.6071 39.1132 15.5323C38.475 14.4622 38.1535 13.2339 38.1535 11.8519C38.1535 10.47 38.4414 9.28482 39.022 8.24358C39.6026 7.19754 40.4039 6.38183 41.4308 5.79643C42.4624 5.21103 43.6428 4.91833 44.9816 4.91833C46.3203 4.91833 47.4431 5.20624 48.422 5.78683C49.4056 6.36743 50.1734 7.16396 50.7108 8.17641C51.2578 9.18885 51.5313 10.3644 51.5313 11.6936C51.5313 11.8663 51.5217 12.0583 51.5025 12.2646C51.4881 12.4661 51.4641 12.6437 51.4305 12.7924H41.1429C41.282 13.9536 41.7667 14.8941 42.6016 15.6138C43.4317 16.3288 44.4729 16.6839 45.7205 16.6839C46.6466 16.6839 47.4863 16.4823 48.2396 16.0745C48.9978 15.6618 49.5688 15.1484 49.9478 14.5342L51.8672 15.7146C51.4065 16.6695 50.6052 17.4468 49.468 18.0562C48.3356 18.6608 47.0592 18.9679 45.6485 18.9679V18.9631ZM41.1429 10.8251H48.5611C48.4604 9.66389 48.0909 8.7714 47.4527 8.14761C46.8145 7.51423 45.9892 7.19754 44.9816 7.19754C43.9739 7.19754 43.091 7.53343 42.3905 8.2052C41.6947 8.88176 41.282 9.75026 41.1429 10.8251Z" fill="#2B2A2A"/>
<path d="M57.2653 18.915C56.3248 18.915 55.4899 18.7566 54.7558 18.4352C54.0216 18.1089 53.4506 17.6626 53.038 17.0868C52.6301 16.5158 52.4286 15.8441 52.4286 15.0763C52.4286 14.0063 52.8892 13.085 53.8201 12.3173C54.751 11.5448 56.2336 11.0409 58.2681 10.8058L61.1567 10.4651C61.4638 10.4315 61.7085 10.3308 61.8957 10.1628C62.0828 9.99009 62.174 9.76937 62.174 9.49106C62.174 8.79051 61.8861 8.2387 61.3151 7.83084C60.7489 7.41818 60.0051 7.21185 59.0839 7.21185C58.3977 7.21185 57.7883 7.34621 57.2653 7.61012C56.7375 7.87882 56.32 8.21951 56.0033 8.64176C55.6962 9.05442 55.5283 9.50066 55.4947 9.98049L52.7549 9.30873C52.8412 8.50741 53.1579 7.77806 53.7049 7.11109C54.2519 6.44412 54.9861 5.91151 55.9026 5.51324C56.819 5.11498 57.8699 4.91345 59.0503 4.91345C60.2307 4.91345 61.2815 5.11978 62.1692 5.53244C63.0617 5.9403 63.7574 6.52089 64.2565 7.27423C64.7603 8.02277 65.0146 8.91047 65.0146 9.93251V15.7913C65.0146 16.0648 65.0674 16.2807 65.1825 16.4391C65.3025 16.5974 65.4752 16.679 65.7008 16.679C66.051 16.679 66.3917 16.4487 66.7228 15.988L67.7209 17.629C67.3946 18.0225 66.9531 18.3344 66.4013 18.5599C65.8447 18.7902 65.2977 18.9102 64.7507 18.9102C64.0501 18.9102 63.4647 18.7039 62.9897 18.2912C62.5243 17.869 62.2652 17.3699 62.222 16.7893L62.1596 16.2471H62.1404C61.7133 17.0484 61.0752 17.6914 60.2211 18.1761C59.367 18.6607 58.3785 18.9054 57.2509 18.9054L57.2653 18.915ZM58.1338 16.6838C59.295 16.6838 60.2451 16.3431 60.9936 15.6617C61.7469 14.9804 62.1212 14.0975 62.1212 13.0034V12.2837L58.8199 12.6628C57.486 12.8163 56.5647 13.0994 56.0513 13.5025C55.5427 13.9007 55.2932 14.3518 55.2932 14.8412C55.2932 15.4074 55.5571 15.8585 56.0945 16.1895C56.6367 16.5158 57.3133 16.679 58.1338 16.679V16.6838Z" fill="#2B2A2A"/>
<path d="M68.4166 18.915V0H71.3052V18.915H68.4166Z" fill="#2B2A2A"/>
<path d="M78.7618 18.9438C77.6342 18.9438 76.6074 18.7711 75.6813 18.4256C74.76 18.0753 74.0163 17.5619 73.4405 16.8853C72.8743 16.204 72.5576 15.4027 72.4904 14.467L75.1199 14.0783C75.1919 14.8844 75.5757 15.537 76.2715 16.0264C76.9721 16.5207 77.8358 16.7654 78.8626 16.7654C79.7455 16.7654 80.494 16.5926 81.1034 16.2376C81.708 15.8777 82.0151 15.417 82.0151 14.846C82.0151 14.3998 81.78 14.0351 81.305 13.7472C80.8395 13.4545 80.1006 13.2146 79.0977 13.0275L77.0968 12.6676C75.7149 12.4133 74.712 11.9958 74.0787 11.42C73.4501 10.8394 73.1382 10.0573 73.1382 9.05925C73.1526 8.24833 73.3733 7.53338 73.81 6.91919C74.2514 6.30021 74.8608 5.82037 75.6381 5.47969C76.4251 5.13901 77.3223 4.97107 78.3252 4.97107C79.7791 4.97107 80.9979 5.31655 81.9959 6.00271C82.994 6.68408 83.5986 7.57657 83.8049 8.68018L81.2474 9.16961C81.1802 8.53623 80.8683 8.02281 80.3165 7.62935C79.7599 7.23588 79.0785 7.03915 78.258 7.03915C77.5383 7.03915 76.9385 7.22149 76.4586 7.58136C75.9836 7.94124 75.7389 8.35869 75.7197 8.82893C75.7197 9.24159 75.9116 9.57267 76.2907 9.81739C76.6746 10.0669 77.2888 10.2828 78.1285 10.4652L80.1486 10.825C81.7224 11.1321 82.8644 11.5832 83.5794 12.183C84.2991 12.778 84.659 13.5889 84.659 14.6109C84.659 15.465 84.4047 16.2184 83.9009 16.8709C83.4018 17.5187 82.7061 18.0273 81.8136 18.392C80.9259 18.7567 79.9134 18.9438 78.7762 18.9438H78.7618Z" fill="#2B2A2A"/>
<path d="M92.2979 18.963C90.9304 18.963 89.7212 18.6655 88.6704 18.0753C87.6244 17.4755 86.8038 16.6502 86.2233 15.5945C85.6379 14.5341 85.3452 13.3249 85.3452 11.9574C85.3452 10.5899 85.6235 9.35191 86.1849 8.29628C86.7511 7.23585 87.5284 6.41053 88.5265 5.81554C89.5245 5.21575 90.6809 4.91345 91.9956 4.91345C93.0369 4.91345 93.9822 5.11018 94.8363 5.50365C95.6904 5.89711 96.4053 6.44412 96.9859 7.14468C97.5665 7.84044 97.96 8.65136 98.1663 9.57264L95.4792 10.2348C95.2777 9.33272 94.8603 8.63696 94.2173 8.13314C93.5791 7.62931 92.8545 7.375 92.0484 7.375C91.3143 7.375 90.6617 7.57173 90.0907 7.9556C89.5245 8.33467 89.0735 8.87208 88.7424 9.55344C88.4065 10.2348 88.2434 11.0313 88.2434 11.9526C88.2434 12.8739 88.4161 13.6512 88.7712 14.3422C89.131 15.0379 89.6205 15.5754 90.2395 15.964C90.8632 16.3431 91.5734 16.535 92.3603 16.535C93.3632 16.535 94.2413 16.2231 94.9802 15.5945C95.724 14.9612 96.1654 14.1407 96.2998 13.133L99.0396 13.5649C98.9053 14.6253 98.5262 15.561 97.8976 16.3719C97.2786 17.178 96.4821 17.8114 95.5176 18.272C94.558 18.7327 93.4879 18.963 92.3075 18.963H92.2979Z" fill="#2B2A2A"/>
<path d="M106.779 18.9631C105.359 18.9631 104.116 18.6752 103.051 18.0946C101.986 17.514 101.156 16.6982 100.57 15.6474C99.9849 14.587 99.6922 13.3586 99.6922 11.9575C99.6922 10.5564 99.9849 9.30401 100.57 8.24838C101.156 7.18795 101.981 6.36743 103.051 5.78683C104.116 5.20624 105.359 4.91833 106.779 4.91833C108.2 4.91833 109.452 5.20624 110.508 5.78683C111.568 6.36743 112.389 7.18795 112.979 8.24838C113.569 9.30401 113.866 10.5372 113.866 11.9575C113.866 13.3778 113.569 14.587 112.979 15.6474C112.393 16.703 111.568 17.5188 110.508 18.0946C109.452 18.6752 108.209 18.9631 106.779 18.9631ZM106.779 16.5063C108.06 16.5063 109.083 16.0937 109.85 15.2683C110.613 14.443 111.002 13.3394 111.002 11.9575C111.002 10.5756 110.618 9.47196 109.85 8.65624C109.083 7.83572 108.06 7.42786 106.779 7.42786C105.498 7.42786 104.452 7.83572 103.689 8.65624C102.931 9.47196 102.547 10.5708 102.547 11.9575C102.547 13.3442 102.926 14.443 103.689 15.2683C104.447 16.0937 105.479 16.5063 106.779 16.5063Z" fill="#2B2A2A"/>
<path d="M137.513 18.9631C136.059 18.9631 134.768 18.656 133.636 18.0514C132.503 17.4468 131.616 16.6071 130.977 15.5323C130.339 14.4622 130.018 13.2339 130.018 11.8519C130.018 10.47 130.306 9.28482 130.886 8.24358C131.467 7.19754 132.268 6.38183 133.295 5.79643C134.327 5.21103 135.507 4.91833 136.846 4.91833C138.184 4.91833 139.307 5.20624 140.286 5.78683C141.27 6.36743 142.037 7.16396 142.575 8.17641C143.122 9.18885 143.395 10.3644 143.395 11.6936C143.395 11.8663 143.386 12.0583 143.367 12.2646C143.352 12.4661 143.328 12.6437 143.295 12.7924H133.007C133.146 13.9536 133.631 14.8941 134.466 15.6138C135.296 16.3288 136.337 16.6839 137.585 16.6839C138.511 16.6839 139.35 16.4823 140.104 16.0745C140.862 15.6618 141.433 15.1484 141.812 14.5342L143.731 15.7146C143.271 16.6695 142.469 17.4468 141.332 18.0562C140.2 18.6608 138.923 18.9679 137.513 18.9679V18.9631ZM133.002 10.8251H140.42C140.32 9.66389 139.95 8.7714 139.312 8.14761C138.674 7.51423 137.849 7.19754 136.841 7.19754C135.833 7.19754 134.95 7.53343 134.25 8.2052C133.554 8.88176 133.141 9.75026 133.002 10.8251Z" fill="#2B2A2A"/>
</svg>
