<svg width="17" height="17" viewBox="0 0 17 17" fill="none" xmlns="http://www.w3.org/2000/svg">
<path d="M6.4222 1.08664C6.48338 0.949718 6.50324 0.798045 6.47935 0.650093C6.45546 0.50214 6.38885 0.364293 6.28764 0.253339C6.18643 0.142384 6.05498 0.063111 5.9093 0.025173C5.76362 -0.012765 5.61 -0.00773054 5.46714 0.0396633C4.33972 0.413639 3.44057 1.15 2.61597 1.97058C1.78701 2.78937 1.12909 3.76331 0.68012 4.83628C0.231147 5.90925 0 7.06003 0 8.22231C0 9.38458 0.231147 10.5354 0.68012 11.6083C1.12909 12.6813 1.78701 13.6553 2.61597 14.474C6.12403 17.9658 11.5531 17.7664 15.0208 14.3156C15.8454 13.4951 16.5846 12.6003 16.9604 11.4776C17.0065 11.3396 17.0125 11.1914 16.9777 11.0501C16.943 10.9089 16.8689 10.7802 16.7639 10.679C16.6589 10.5778 16.5274 10.5081 16.3844 10.478C16.2414 10.4478 16.0928 10.4585 15.9556 10.5087C13.1681 11.5301 9.99626 11.0758 7.85477 8.94399C5.70629 6.80599 5.26992 3.66583 6.4222 1.08664Z" fill="#757575"/>
</svg>
